<svg width="2068" height="1794" viewBox="0 0 2068 1794" fill="none" xmlns="http://www.w3.org/2000/svg">
<rect width="2068" height="1794" fill="url(#paint0_linear_13_1192)"/>
<g clip-path="url(#clip0_13_1192)">
<g opacity="0.15">
<path fill-rule="evenodd" clip-rule="evenodd" d="M1479.32 1286.37C1471.44 1279.42 1458.67 1279.42 1450.79 1286.37L1365.19 1361.84C1357.31 1368.79 1357.31 1380.05 1365.19 1387L1679.05 1663.75C1686.93 1670.69 1699.71 1670.69 1707.59 1663.75L1793.19 1588.27C1801.06 1581.32 1801.06 1570.06 1793.19 1563.11L1479.32 1286.37ZM1308.12 1311.52C1268.73 1346.26 1268.73 1402.58 1308.12 1437.32L1621.99 1714.06C1661.38 1748.8 1725.26 1748.8 1764.65 1714.06L1850.25 1638.59C1889.65 1603.85 1889.65 1547.53 1850.25 1512.79L1536.39 1236.05C1496.99 1201.31 1433.12 1201.31 1393.72 1236.05L1308.12 1311.52Z" stroke="url(#paint1_radial_13_1192)" stroke-width="0.996678"/>
<path d="M1793.19 1387C1801.06 1380.05 1801.06 1368.79 1793.19 1361.84L1707.59 1286.37C1699.71 1279.42 1686.93 1279.42 1679.05 1286.37L1636.4 1323.97L1579.34 1273.66L1621.99 1236.05C1661.38 1201.31 1725.26 1201.31 1764.65 1236.05L1850.25 1311.52C1889.65 1346.26 1889.65 1402.58 1850.25 1437.32L1636.11 1626.14L1579.04 1575.82L1793.19 1387Z" stroke="url(#paint2_radial_13_1192)" stroke-width="0.996678"/>
<path d="M1521.97 1626.14L1479.32 1663.75C1471.44 1670.69 1458.67 1670.69 1450.79 1663.75L1365.19 1588.27C1357.31 1581.32 1357.31 1570.06 1365.19 1563.11L1579.34 1374.29L1522.27 1323.97L1308.12 1512.79C1268.73 1547.53 1268.73 1603.85 1308.12 1638.59L1393.72 1714.06C1433.12 1748.8 1496.99 1748.8 1536.39 1714.06L1579.04 1676.46L1521.97 1626.14Z" stroke="url(#paint3_radial_13_1192)" stroke-width="0.996678"/>
</g>
</g>
<g clip-path="url(#clip1_13_1192)">
<g opacity="0.15">
<path fill-rule="evenodd" clip-rule="evenodd" d="M1516.52 406.976C1508.64 400.029 1495.87 400.029 1487.99 406.976L1402.39 482.452C1394.51 489.399 1394.51 500.664 1402.39 507.611L1716.25 784.357C1724.13 791.304 1736.91 791.304 1744.79 784.357L1830.39 708.881C1838.26 701.934 1838.26 690.67 1830.39 683.722L1516.52 406.976ZM1345.32 432.135C1305.93 466.872 1305.93 523.192 1345.32 557.928L1659.19 834.675C1698.58 869.412 1762.46 869.412 1801.85 834.675L1887.45 759.199C1926.85 724.461 1926.85 668.141 1887.45 633.405L1573.59 356.659C1534.19 321.922 1470.32 321.922 1430.92 356.659L1345.32 432.135Z" stroke="url(#paint4_radial_13_1192)" stroke-width="0.996678"/>
<path d="M1830.39 507.611C1838.26 500.664 1838.26 489.399 1830.39 482.452L1744.79 406.976C1736.91 400.029 1724.13 400.029 1716.25 406.976L1673.6 444.584L1616.54 394.266L1659.19 356.659C1698.58 321.922 1762.46 321.922 1801.85 356.659L1887.45 432.135C1926.85 466.872 1926.85 523.192 1887.45 557.928L1673.3 746.75L1616.24 696.433L1830.39 507.611Z" stroke="url(#paint5_radial_13_1192)" stroke-width="0.996678"/>
<path d="M1559.17 746.75L1516.52 784.357C1508.64 791.304 1495.87 791.304 1487.99 784.357L1402.39 708.881C1394.51 701.934 1394.51 690.67 1402.39 683.722L1616.54 494.901L1559.47 444.584L1345.32 633.405C1305.93 668.141 1305.93 724.461 1345.32 759.199L1430.92 834.675C1470.32 869.412 1534.19 869.412 1573.59 834.675L1616.24 797.068L1559.17 746.75Z" stroke="url(#paint6_radial_13_1192)" stroke-width="0.996678"/>
</g>
<path d="M1314.77 330.672C1315.37 330.672 1315.85 330.247 1315.85 329.722C1315.85 329.198 1315.37 328.773 1314.77 328.773C1314.18 328.773 1313.7 329.198 1313.7 329.722C1313.7 330.247 1314.18 330.672 1314.77 330.672Z" fill="#945DD6"/>
<path d="M1314.77 329.722L1278.26 329.741" stroke="url(#paint7_linear_13_1192)" stroke-width="0.996678"/>
<path d="M1314.77 329.722L1278.26 329.741" stroke="url(#paint8_linear_13_1192)" stroke-width="0.996678"/>
<path d="M1313.7 329.722C1313.7 330.247 1314.18 330.672 1314.77 330.672C1315.37 330.672 1315.85 330.247 1315.85 329.722C1315.85 329.198 1315.37 328.773 1314.77 328.773C1314.18 328.773 1313.7 329.198 1313.7 329.722Z" fill="#945DD6"/>
<path d="M1314.42 329.403L1277.9 329.385" stroke="url(#paint9_linear_13_1192)" stroke-width="0.996678"/>
<path d="M1313.7 329.722C1313.7 330.247 1314.18 330.672 1314.77 330.672C1315.37 330.672 1315.85 330.247 1315.85 329.722C1315.85 329.198 1315.37 328.773 1314.77 328.773C1314.18 328.773 1313.7 329.198 1313.7 329.722Z" fill="#F46737"/>
<path d="M1314.77 329.722L1278.26 329.703" stroke="url(#paint10_linear_13_1192)" stroke-width="0.996678"/>
<path d="M1314.77 328.773C1314.18 328.773 1313.7 329.198 1313.7 329.722C1313.7 330.247 1314.18 330.672 1314.77 330.672C1315.37 330.672 1315.85 330.247 1315.85 329.722C1315.85 329.198 1315.37 328.773 1314.77 328.773Z" fill="#F46737"/>
<path d="M1314.77 329.722L1278.26 329.703" stroke="url(#paint11_linear_13_1192)" stroke-width="0.996678"/>
<path d="M1314.77 330.672C1315.37 330.672 1315.85 330.247 1315.85 329.722C1315.85 329.198 1315.37 328.773 1314.77 328.773C1314.18 328.773 1313.7 329.198 1313.7 329.722C1313.7 330.247 1314.18 330.672 1314.77 330.672Z" fill="#F46737"/>
<path d="M1314.77 329.722L1278.26 329.742" stroke="url(#paint12_linear_13_1192)" stroke-width="0.996678"/>
<path d="M1313.7 329.722C1313.7 330.247 1314.18 330.672 1314.77 330.672C1315.37 330.672 1315.85 330.247 1315.85 329.722C1315.85 329.198 1315.37 328.773 1314.77 328.773C1314.18 328.773 1313.7 329.198 1313.7 329.722Z" fill="#13ADC7"/>
<path d="M1314.42 329.403L1277.9 329.385" stroke="url(#paint13_linear_13_1192)" stroke-width="0.996678"/>
</g>
<g opacity="0.15">
<path fill-rule="evenodd" clip-rule="evenodd" d="M264.062 894.894C255.732 888.612 242.226 888.612 233.896 894.894L143.395 963.142C135.065 969.424 135.065 979.609 143.395 985.891L475.231 1236.13C483.561 1242.42 497.067 1242.42 505.397 1236.13L595.898 1167.89C604.228 1161.6 604.228 1151.42 595.898 1145.14L264.062 894.894ZM83.0615 917.643C41.4098 949.053 41.4098 999.98 83.0615 1031.39L414.897 1281.63C456.548 1313.04 524.079 1313.04 565.731 1281.63L656.231 1213.39C697.883 1181.97 697.883 1131.05 656.231 1099.64L324.396 849.395C282.745 817.985 215.214 817.985 173.562 849.395L83.0615 917.643Z" stroke="url(#paint14_radial_13_1192)" stroke-width="0.996678"/>
<path d="M595.898 985.891C604.228 979.609 604.228 969.424 595.898 963.142L505.398 894.894C497.067 888.612 483.561 888.612 475.231 894.894L430.137 928.9L369.803 883.401L414.897 849.395C456.548 817.985 524.079 817.985 565.731 849.395L656.231 917.643C697.883 949.053 697.883 999.98 656.231 1031.39L429.823 1202.13L369.49 1156.63L595.898 985.891Z" stroke="url(#paint15_radial_13_1192)" stroke-width="0.996678"/>
<path d="M309.155 1202.13L264.062 1236.13C255.732 1242.42 242.226 1242.42 233.896 1236.13L143.395 1167.89C135.065 1161.6 135.065 1151.42 143.395 1145.14L369.803 974.399L309.47 928.9L83.0615 1099.64C41.4098 1131.05 41.4098 1181.97 83.0615 1213.39L173.562 1281.63C215.214 1313.04 282.745 1313.04 324.396 1281.63L369.49 1247.63L309.155 1202.13Z" stroke="url(#paint16_radial_13_1192)" stroke-width="0.996678"/>
</g>
<g clip-path="url(#clip2_13_1192)">
<g opacity="0.15">
<path fill-rule="evenodd" clip-rule="evenodd" d="M289.962 100.254C282.083 93.3063 269.308 93.3063 261.429 100.254L175.83 175.73C167.951 182.677 167.951 193.941 175.83 200.888L489.694 477.635C497.573 484.582 510.348 484.582 518.227 477.635L603.826 402.159C611.705 395.212 611.705 383.947 603.826 377L289.962 100.254ZM118.764 125.412C79.3678 160.149 79.3678 216.47 118.764 251.206L432.628 527.952C472.023 562.689 535.896 562.689 575.293 527.952L660.891 452.476C700.288 417.739 700.288 361.419 660.891 326.683L347.028 49.9363C307.633 15.1993 243.759 15.1993 204.363 49.9363L118.764 125.412Z" stroke="url(#paint17_radial_13_1192)" stroke-width="0.996678"/>
<path d="M603.825 200.888C611.704 193.941 611.704 182.677 603.825 175.73L518.226 100.254C510.347 93.3063 497.572 93.3064 489.693 100.254L447.042 137.861L389.976 87.5437L432.627 49.9363C472.023 15.1993 535.896 15.1993 575.292 49.9363L660.891 125.412C700.287 160.15 700.287 216.47 660.891 251.206L446.745 440.028L389.679 389.711L603.825 200.888Z" stroke="url(#paint18_radial_13_1192)" stroke-width="0.996678"/>
<path d="M332.612 440.028L289.962 477.635C282.083 484.582 269.308 484.582 261.429 477.635L175.83 402.159C167.951 395.212 167.951 383.947 175.83 377L389.976 188.179L332.91 137.861L118.764 326.683C79.3678 361.419 79.3678 417.739 118.764 452.476L204.363 527.952C243.759 562.689 307.633 562.689 347.028 527.952L389.679 490.345L332.612 440.028Z" stroke="url(#paint19_radial_13_1192)" stroke-width="0.996678"/>
</g>
</g>
<defs>
<linearGradient id="paint0_linear_13_1192" x1="-3.08156e-05" y1="1794" x2="2324.06" y2="439.277" gradientUnits="userSpaceOnUse">
<stop stop-color="#291B31"/>
<stop offset="1" stop-color="#1A1E31"/>
</linearGradient>
<radialGradient id="paint1_radial_13_1192" cx="0" cy="0" r="1" gradientUnits="userSpaceOnUse" gradientTransform="translate(1579.19 1475.06) rotate(90) scale(265.061 300.611)">
<stop offset="0.333333" stop-color="#FBFBFB"/>
<stop offset="1" stop-color="white" stop-opacity="0"/>
</radialGradient>
<radialGradient id="paint2_radial_13_1192" cx="0" cy="0" r="1" gradientUnits="userSpaceOnUse" gradientTransform="translate(1579.19 1475.06) rotate(90) scale(265.061 300.611)">
<stop offset="0.333333" stop-color="#FBFBFB"/>
<stop offset="1" stop-color="white" stop-opacity="0"/>
</radialGradient>
<radialGradient id="paint3_radial_13_1192" cx="0" cy="0" r="1" gradientUnits="userSpaceOnUse" gradientTransform="translate(1579.19 1475.06) rotate(90) scale(265.061 300.611)">
<stop offset="0.333333" stop-color="#FBFBFB"/>
<stop offset="1" stop-color="white" stop-opacity="0"/>
</radialGradient>
<radialGradient id="paint4_radial_13_1192" cx="0" cy="0" r="1" gradientUnits="userSpaceOnUse" gradientTransform="translate(1616.39 595.667) rotate(90) scale(265.061 300.611)">
<stop offset="0.333333" stop-color="#FBFBFB"/>
<stop offset="1" stop-color="white" stop-opacity="0"/>
</radialGradient>
<radialGradient id="paint5_radial_13_1192" cx="0" cy="0" r="1" gradientUnits="userSpaceOnUse" gradientTransform="translate(1616.39 595.667) rotate(90) scale(265.061 300.611)">
<stop offset="0.333333" stop-color="#FBFBFB"/>
<stop offset="1" stop-color="white" stop-opacity="0"/>
</radialGradient>
<radialGradient id="paint6_radial_13_1192" cx="0" cy="0" r="1" gradientUnits="userSpaceOnUse" gradientTransform="translate(1616.39 595.667) rotate(90) scale(265.061 300.611)">
<stop offset="0.333333" stop-color="#FBFBFB"/>
<stop offset="1" stop-color="white" stop-opacity="0"/>
</radialGradient>
<linearGradient id="paint7_linear_13_1192" x1="1315.28" y1="329.722" x2="1279.78" y2="329.698" gradientUnits="userSpaceOnUse">
<stop stop-color="#945DD6"/>
<stop offset="1" stop-color="#945DD6" stop-opacity="0"/>
</linearGradient>
<linearGradient id="paint8_linear_13_1192" x1="1293.78" y1="186.865" x2="1258.28" y2="186.841" gradientUnits="userSpaceOnUse">
<stop stop-color="#F46737"/>
<stop offset="1" stop-color="#F46737" stop-opacity="0"/>
</linearGradient>
<linearGradient id="paint9_linear_13_1192" x1="1314.93" y1="329.403" x2="1279.42" y2="329.427" gradientUnits="userSpaceOnUse">
<stop stop-color="#945DD6"/>
<stop offset="1" stop-color="#945DD6" stop-opacity="0"/>
</linearGradient>
<linearGradient id="paint10_linear_13_1192" x1="1315.28" y1="329.722" x2="1279.78" y2="329.747" gradientUnits="userSpaceOnUse">
<stop stop-color="#F46737"/>
<stop offset="1" stop-color="#F46737" stop-opacity="0"/>
</linearGradient>
<linearGradient id="paint11_linear_13_1192" x1="1315.28" y1="329.722" x2="1279.78" y2="329.746" gradientUnits="userSpaceOnUse">
<stop stop-color="#F46737"/>
<stop offset="1" stop-color="#F46737" stop-opacity="0"/>
</linearGradient>
<linearGradient id="paint12_linear_13_1192" x1="1315.28" y1="329.722" x2="1279.78" y2="329.698" gradientUnits="userSpaceOnUse">
<stop stop-color="#F46737"/>
<stop offset="1" stop-color="#F46737" stop-opacity="0"/>
</linearGradient>
<linearGradient id="paint13_linear_13_1192" x1="1314.93" y1="329.403" x2="1279.42" y2="329.427" gradientUnits="userSpaceOnUse">
<stop stop-color="#13ADC7"/>
<stop offset="1" stop-color="#13ADC7" stop-opacity="0"/>
</linearGradient>
<radialGradient id="paint14_radial_13_1192" cx="0" cy="0" r="1" gradientUnits="userSpaceOnUse" gradientTransform="translate(369.647 1065.51) rotate(90) scale(239.677 317.824)">
<stop offset="0.333333" stop-color="#FBFBFB"/>
<stop offset="1" stop-color="white" stop-opacity="0"/>
</radialGradient>
<radialGradient id="paint15_radial_13_1192" cx="0" cy="0" r="1" gradientUnits="userSpaceOnUse" gradientTransform="translate(369.647 1065.51) rotate(90) scale(239.677 317.824)">
<stop offset="0.333333" stop-color="#FBFBFB"/>
<stop offset="1" stop-color="white" stop-opacity="0"/>
</radialGradient>
<radialGradient id="paint16_radial_13_1192" cx="0" cy="0" r="1" gradientUnits="userSpaceOnUse" gradientTransform="translate(369.647 1065.51) rotate(90) scale(239.677 317.824)">
<stop offset="0.333333" stop-color="#FBFBFB"/>
<stop offset="1" stop-color="white" stop-opacity="0"/>
</radialGradient>
<radialGradient id="paint17_radial_13_1192" cx="0" cy="0" r="1" gradientUnits="userSpaceOnUse" gradientTransform="translate(389.828 288.944) rotate(90) scale(265.061 300.611)">
<stop offset="0.333333" stop-color="#FBFBFB"/>
<stop offset="1" stop-color="white" stop-opacity="0"/>
</radialGradient>
<radialGradient id="paint18_radial_13_1192" cx="0" cy="0" r="1" gradientUnits="userSpaceOnUse" gradientTransform="translate(389.827 288.944) rotate(90) scale(265.061 300.611)">
<stop offset="0.333333" stop-color="#FBFBFB"/>
<stop offset="1" stop-color="white" stop-opacity="0"/>
</radialGradient>
<radialGradient id="paint19_radial_13_1192" cx="0" cy="0" r="1" gradientUnits="userSpaceOnUse" gradientTransform="translate(389.828 288.944) rotate(90) scale(265.061 300.611)">
<stop offset="0.333333" stop-color="#FBFBFB"/>
<stop offset="1" stop-color="white" stop-opacity="0"/>
</radialGradient>
<clipPath id="clip0_13_1192">
<rect width="603.226" height="531.889" fill="white" transform="translate(1277.58 1209.11)"/>
</clipPath>
<clipPath id="clip1_13_1192">
<rect width="603.226" height="531.889" fill="white" transform="translate(1314.77 329.722)"/>
</clipPath>
<clipPath id="clip2_13_1192">
<rect width="603.226" height="531.889" fill="white" transform="translate(88.2148 23)"/>
</clipPath>
</defs>
</svg>
